<?xml version="1.0" encoding="UTF-8" standalone="no"?>
<!-- Created with Inkscape (http://www.inkscape.org/) -->

<svg
   width="182.8271mm"
   height="180.66182mm"
   viewBox="0 0 182.8271 180.66182"
   version="1.1"
   id="svg5"
   inkscape:version="1.1.1 (3bf5ae0, 2021-09-20)"
   sodipodi:docname="icon.svg"
   xmlns:inkscape="http://www.inkscape.org/namespaces/inkscape"
   xmlns:sodipodi="http://sodipodi.sourceforge.net/DTD/sodipodi-0.dtd"
   xmlns="http://www.w3.org/2000/svg"
   xmlns:svg="http://www.w3.org/2000/svg">
  <sodipodi:namedview
     id="namedview7"
     pagecolor="#ffffff"
     bordercolor="#666666"
     borderopacity="1.0"
     inkscape:pageshadow="2"
     inkscape:pageopacity="0.0"
     inkscape:pagecheckerboard="0"
     inkscape:document-units="mm"
     showgrid="false"
     showguides="false"
     fit-margin-top="0"
     fit-margin-left="0"
     fit-margin-right="0"
     fit-margin-bottom="0"
     inkscape:zoom="0.18284757"
     inkscape:cx="-82.035543"
     inkscape:cy="453.93001"
     inkscape:window-width="1920"
     inkscape:window-height="1039"
     inkscape:window-x="1920"
     inkscape:window-y="0"
     inkscape:window-maximized="1"
     inkscape:current-layer="layer1" />
  <defs
     id="defs2" />
  <g
     inkscape:label="Layer 1"
     inkscape:groupmode="layer"
     id="layer1"
     transform="translate(-1081.6848,36.654701)">
    <g
       id="g12106">
      <path
         id="path9804"
         style="fill:#365ca7;fill-opacity:1;stroke-width:0.264583"
         d="m 1139.9107,11.981232 c -2.7409,0 -2.8495,0.02273 -3.9429,0.826823 -0.8415,0.618815 -1.4149,1.405001 -2.2779,3.123324 -0.4555,0.907 -0.9468,1.765041 -1.2795,2.258261 l -1.1679,1.893941 c -0.7872,1.840462 -4.5442,9.533157 -9.1369,18.686713 l -9.5906,19.116146 -6e-4,3.355353 -5e-4,3.355351 0.7938,0.844391 c 1.3915,1.480047 2.0935,1.631923 6.5551,1.419553 l 3.9724,-0.189138 0.7658,0.149347 1.7617,-0.166399 c 0.9689,-0.09152 2.3329,-0.166849 3.0313,-0.16795 3.0513,-0.0045 3.8036,-1.023913 8.6476,-11.720729 0.4366,-0.964308 0.8176,-1.564039 1.0252,-1.625224 0.03,-0.0087 0.056,-0.0065 0.078,0.0072 0.3439,0.212574 0.9926,1.619898 4.6136,10.008174 2.273,5.265412 2.921,6.521079 3.8567,7.474479 l 1.1244,1.145667 3.1859,-0.0031 c 1.7523,-0.0018 4.9623,-0.174625 7.1329,-0.383956 l 3.946,-0.380338 1.2795,-1.259872 c 0.7035,-0.69292 1.279,-1.406131 1.279,-1.584915 0,-0.178784 0.1163,-0.396896 0.2584,-0.484724 0.4432,-0.273937 8.5909,-0.648505 8.8356,-0.406178 0.014,0.01404 -0.01,0.04271 -0.01,0.06304 l 1.6485,0.207221 c 0.235,0 1.1411,0.645692 2.0133,1.435055 1.5645,1.41577 3.6183,2.469616 5.9718,3.063896 0.6184,0.156171 1.1319,0.368277 1.1399,0.471805 0.1823,2.235801 0.1105,5.666976 -0.1214,5.811015 -0.16,0.09938 -1.0277,0.438444 -1.9281,0.753443 -2.0282,0.709631 -4.8216,2.55124 -6.5551,4.321702 -0.7221,0.737502 -1.4196,1.341001 -1.5503,1.341001 -0.1306,0 -1.5047,-1.232866 -3.053,-2.739366 -1.5483,-1.506501 -3.2316,-2.95819 -3.7409,-3.22616 -0.6534,-0.343771 -1.6856,-0.520031 -3.5057,-0.59893 -0.7212,-0.03125 -1.1638,-0.07913 -1.5725,-0.130225 l -0.01,0.0021 -2.2195,0.06408 -6.3361,0.2682 c -3.4849,0.147651 -7.3888,0.433999 -8.6754,0.636138 -2.251,0.353639 -2.3884,0.415459 -3.6349,1.643311 l -1.2956,1.276406 -1.789,-0.630968 c -1.5875,-0.55948 -2.3608,-0.642657 -6.8616,-0.738457 -4.5076,-0.09592 -5.3184,-0.04547 -7.2761,0.449585 -1.2635,0.319511 -2.9795,1.006552 -4.024,1.611273 -2.2986,1.330769 -2.5451,1.337749 -2.5451,0.07183 0,-0.01716 0.03,-0.108307 0.032,-0.129191 l -0.523,-2.489253 c -0.1718,-0.520814 -0.3734,-1.264973 -0.5788,-2.274797 l -0.6077,-2.987416 -1.5002,-1.521354 -1.4996,-1.521354 h -5.5738 -5.5733 l -1.0578,0.883668 -1.0579,0.883666 -4.7222,0.192236 c -2.597,0.105762 -5.5885,0.278516 -6.6481,0.383958 -1.9182,0.190878 -1.9336,0.198797 -3.4779,1.768366 l -1.5513,1.576647 -0.8372,8.995833 c -0.4605,4.947711 -1.0683,11.284913 -1.3508,14.082864 -0.2824,2.79796 -0.5136,6.62058 -0.5136,8.49457 v 3.40703 l 1.4392,1.36116 1.4397,1.36167 h 2.669 c 3.6988,0 13.5465,-0.76578 13.9289,-1.08314 0.2234,-0.18543 0.8378,0.26702 2.1265,1.56683 l 1.8123,1.82832 3.4308,0.30334 c 0.8652,0.0766 1.6616,0.16946 2.3042,0.26045 l 2.2195,0.1974 1.5793,0.11679 c 0.8683,0.0643 2.7885,0.1173 4.2674,0.1173 h 2.6888 l 1.8494,-1.78594 1.8495,-1.78593 h 3.6815 c 5.176,0 8.382,-0.66725 11.7832,-2.45153 l 1.5224,-0.7984 1.4651,1.38544 1.4644,1.38545 3.6277,-0.11318 c 1.9951,-0.0623 5.4516,-0.33064 7.6818,-0.59634 l 4.055,-0.48317 0.6894,0.74362 0.6898,0.74362 5.4421,-0.19275 c 7.316,-0.25948 8.0081,-0.37202 9.1555,-1.48415 l 0.9245,-0.89607 1.2526,0.48576 c 0.6891,0.26702 1.6699,0.63559 2.1792,0.81907 1.2523,0.4511 11.5499,0.76581 17.0786,0.52194 l 4.3677,-0.19276 1.2877,-1.15807 c 1.3457,-1.20991 1.8733,-1.35569 3.1115,-0.85989 1.0749,0.4305 8.4922,0.72265 11.5931,0.45682 1.6488,-0.14136 3.6596,-0.54003 5.3361,-1.05782 l 2.6897,-0.83096 1.2041,1.02992 c 0.625,0.53458 1.1398,1.09918 1.2004,1.30689 l 0.6837,-0.27699 15.6616,-0.13229 15.6611,-0.13229 1.298,-1.24437 1.2976,-1.24385 0.1711,-2.19573 c 0.093,-1.20763 0.1718,-3.78955 0.1726,-5.73815 v -3.542939 l -1.3622,-1.285709 -1.3627,-1.285711 h -2.7383 c -1.5063,0 -2.7389,-0.110058 -2.7389,-0.244427 0,-0.134361 1.042,-1.533284 2.3156,-3.108854 3.7249,-4.607671 6.0453,-7.596979 6.3738,-8.21087 0.1684,-0.314619 0.3065,-1.549498 0.3065,-2.744018 V 79.10943 l -1.2568,-1.246433 -1.2568,-1.24592 -11.3771,-0.171048 c -6.2574,-0.09394 -13.9121,-0.170871 -17.0103,-0.171051 h -5.6327 l -1.0118,1.095542 -1.0119,1.095539 -2.0862,-0.333312 c -1.3782,-0.219979 -3.7483,-0.29269 -6.9814,-0.212391 -5.5061,0.136681 -6.7256,0.424391 -9.8382,2.318723 -0.9192,0.55943 -1.7472,0.937893 -1.8402,0.841291 -0.093,-0.09656 -0.2294,-3.449405 -0.3033,-7.451225 l -0.1344,-7.276042 0.663,-0.982368 c 0.3647,-0.540134 0.8754,-1.79029 1.1348,-2.778125 0.535,-2.037131 0.5413,-2.03939 2.9099,-1.161685 1.2677,0.469757 2.0858,0.539869 6.35,0.544668 5.3326,0.006 6.5742,-0.194918 9.1602,-1.481563 1.8123,-0.901724 6.0037,-4.795139 7.6409,-7.097758 1.8603,-2.616472 2.201,-4.190968 2.298,-10.629841 0.1157,-7.662656 -0.2971,-9.127207 -3.4618,-12.291756 -1.2323,-1.232236 -2.3103,-2.011709 -3.6597,-2.645833 -1.0299,-0.483952 -1.867,-0.959742 -1.9053,-1.079521 l -0.7013,-0.115756 -5.2808,-0.06666 c -6.1743,-0.07821 -7.481,0.195979 -10.5311,2.210199 -1.8617,1.229373 -2.0765,1.321268 -2.3787,1.019061 -0.097,-0.09701 -0.1762,-2.707177 -0.1762,-5.80068 v -5.624464 l -1.1245,-1.083136 c -0.6185,-0.595476 -1.3849,-1.151247 -1.7033,-1.235067 -0.3183,-0.08381 -1.8066,-0.110802 -3.3073,-0.06046 -2.6249,0.08806 -2.8238,0.138051 -5.242,1.318265 -2.569,1.25376 -4.102,1.712042 -4.3553,1.302247 -0.013,-0.0202 0.01,-0.08286 0.042,-0.163298 l -0.8677,0.01395 -1.9952,0.162782 c -1.0974,0.08972 -2.4615,0.31133 -3.0318,0.492477 -1.8222,0.578736 -4.1686,2.031415 -6.0178,3.72587 -1.0356,0.948926 -1.8939,1.546746 -2.0257,1.410766 -0.1258,-0.129783 -0.3138,-2.319237 -0.4175,-4.865854 l -0.1886,-4.630208 -1.2491,-1.256771 -1.2495,-1.256771 h -3.0954 -3.096 l -4.9454,2.045872 c -3.7735,1.561024 -5.2169,2.29402 -6.088,3.092318 -0.6279,0.575466 -1.2536,1.255525 -1.3906,1.511536 -0.538,1.005295 -1.0392,4.749323 -1.0392,7.762832 v 3.167766 l 1.5632,1.487763 1.5632,1.487249 0.2625,4.604885 c 0.144,2.532753 0.208,4.694701 0.1411,4.803841 -0.2329,0.380186 -0.6342,0.193898 -0.8594,-0.398422 -0.4036,-1.061702 -4.496,-10.967157 -8.0042,-19.37453 -1.8812,-4.508384 -3.6644,-8.456837 -3.963,-8.774657 l -0.5431,-0.577742 -0.7106,-0.726572 c -0.1141,-0.02029 -0.228,-0.04829 -0.3519,-0.09147 -0.4501,-0.156917 -2.0872,-0.285256 -3.6375,-0.285256 z m 0.1685,5.433261 c 0.1105,0.01963 0.2277,0.121597 0.3927,0.313158 0.2233,0.259191 2.4017,5.293323 4.8405,11.186914 2.4389,5.893596 4.9647,11.947562 5.6131,13.453443 1.3027,3.025318 8.0078,19.200135 8.8791,21.419365 0.7342,1.87008 0.5414,2.018914 -3.1052,2.396752 v 5.19e-4 c -3.6443,0.377552 -4.8149,0.379221 -5.0442,0.0083 -0.099,-0.160684 -2.1801,-4.928833 -4.624,-10.596253 -2.4439,-5.667423 -4.6291,-10.587604 -4.8555,-10.933184 -0.4196,-0.640376 -1.9078,-0.985324 -4.4969,-1.042313 l -1.0289,-0.02222 -1.7818,3.836458 c -3.9892,8.589891 -6.1633,13.113234 -6.4456,13.411068 -0.3053,0.322122 -9.8252,0.987983 -10.2624,0.717785 -0.1223,-0.07558 -0.2222,-0.31496 -0.2222,-0.531749 0,-0.47766 21.3081,-42.956379 21.7888,-43.437142 0.1378,-0.13779 0.2419,-0.200494 0.3525,-0.180867 z m 30.7097,0.437182 c 0.386,0.07382 0.4915,0.503547 0.6393,2.598809 0.3742,5.307885 1.0491,15.752145 1.4272,22.090123 0.2172,3.638023 0.5172,8.638645 0.6667,11.1125 0.1495,2.473854 0.2356,5.266433 0.1912,6.206341 l -0.081,1.708939 -0.9261,0.178284 c -0.5093,0.09802 -2.266,0.254272 -3.9036,0.346747 l -2.9776,0.167949 -0.523,-0.859895 c -0.8532,-1.40308 -1.038,-3.00831 -1.5931,-13.833782 -0.9077,-17.699336 -1.0779,-20.590158 -1.2253,-20.828701 -0.079,-0.12736 -0.6672,-0.152855 -1.3074,-0.05685 -0.8785,0.131742 -1.199,0.08333 -1.3069,-0.197919 -0.1983,-0.516633 0.6139,-4.248028 1.0067,-4.624525 0.5337,-0.51172 9.4158,-4.103044 9.9125,-4.008024 z m 30.3511,3.654557 c 0.4054,0 0.6678,4.103878 0.6698,10.469128 9e-4,3.575331 -0.095,4.815393 -0.461,5.953125 -0.3801,1.182018 -0.4619,2.423306 -0.4589,6.993372 0,4.866415 0.076,5.836848 0.5886,7.816577 0.576,2.226545 0.5973,4.423479 0.051,5.307171 -0.1411,0.228272 -1.1437,0.406443 -2.943,0.522965 -2.6163,0.169429 -2.8756,0.243358 -6.2761,1.799373 -3.7705,1.725324 -5.4606,2.90045 -6.5598,4.56148 -0.3735,0.564489 -0.8186,1.026808 -0.9891,1.026808 -0.4703,0 -2.5709,-1.418693 -3.376,-2.279962 -1.5892,-1.700032 -2.4176,-5.273992 -1.8433,-7.95197 0.4221,-1.968193 1.3592,-4.320151 1.7213,-4.320151 0.358,0 5.4913,3.141287 6.2389,3.817856 0.2673,0.241834 0.5617,0.912976 0.6543,1.491898 0.206,1.288505 1.3397,2.095947 2.9455,2.097548 2.3697,0.0022 2.8842,-1.201381 2.8216,-6.597531 -0.024,-2.10103 -0.145,-3.920453 -0.2678,-4.043164 -0.1226,-0.122709 -0.9226,-0.04041 -1.7781,0.182417 -2.294,0.597498 -5.3299,0.527732 -7.181,-0.164846 -1.7953,-0.671698 -3.9125,-2.644339 -4.7837,-4.457094 -1.5643,-3.255309 -1.8385,-8.363601 -0.6154,-11.46855 1.1779,-2.990374 5.3455,-6.620912 9.0191,-7.856884 1.4677,-0.493847 2.1137,-0.559289 4.4095,-0.445968 l 2.6903,0.132807 2.699,-1.29346 c 1.4845,-0.711309 2.8452,-1.292945 3.0241,-1.292945 z m -8.772,6.651792 c -0.2124,-0.01194 -0.8427,0.224771 -1.5188,0.578776 -2.588,1.354968 -3.8943,4.059181 -2.9363,6.078182 0.5174,1.090264 1.2997,1.674458 2.7146,2.026748 1.2295,0.306121 3.2765,0.120727 3.5579,-0.32246 0.3302,-0.519888 0.2523,-3.494829 -0.1007,-3.847828 -0.1747,-0.174625 -0.529,-0.317294 -0.7876,-0.317294 -0.2586,0 -0.664,-0.296002 -0.9007,-0.657322 -0.3711,-0.566442 -0.3861,-0.84146 -0.1085,-1.99833 0.1769,-0.737936 0.2419,-1.422013 0.1441,-1.519803 -0.012,-0.01222 -0.034,-0.01897 -0.064,-0.02067 z m 27.1399,3.656107 c 4.023,0.03823 7.9597,2.003425 9.2697,5.048787 1.4785,3.436832 1.3293,7.980887 -0.3813,11.593092 -1.6749,3.536664 -5.2399,6.626442 -8.9907,7.792289 -6.319,1.964047 -11.6237,-1.186162 -13.0964,-7.777822 -0.4886,-2.187112 -0.2307,-6.344435 0.5127,-8.263059 1.1286,-2.913052 5.1638,-6.499169 8.7286,-7.757668 1.2661,-0.446958 2.6164,-0.648361 3.9574,-0.635619 z m -79.6034,0.285253 c -0.061,-0.004 -0.1198,0.0149 -0.1628,0.05788 -0.2449,0.244946 -2.2246,5.277821 -2.2246,5.655469 -10e-5,0.185891 0.4464,0.410663 0.9922,0.499713 0.5456,0.08904 1.1707,0.19979 1.389,0.245978 0.918,0.194255 1.538,0.124841 1.6474,-0.185002 0.1294,-0.366276 -1.1856,-5.910389 -1.4691,-6.193935 -0.049,-0.04909 -0.1114,-0.07606 -0.1721,-0.0801 z m 79.808,3.97392 c -0.223,-0.0036 -0.6658,0.161486 -1.3652,0.48369 -1.4595,0.672285 -2.4484,1.667354 -3.0831,3.102136 -0.9269,2.095548 -0.2127,3.780602 2.1162,4.993495 2.299,1.197316 4.2648,0.711215 5.8229,-1.439707 0.7552,-1.042572 1.6321,-4.326702 1.2557,-4.703072 -0.093,-0.09352 -0.6734,0.315045 -1.2888,0.907439 -1.8382,1.769449 -2.724,2.04728 -3.6323,1.138947 -0.7127,-0.712719 -0.7023,-2.435572 0.022,-3.607015 0.3632,-0.587647 0.4397,-0.871325 0.1529,-0.875913 z m -20.6405,27.766261 c 0.1965,0 0.3634,0.208359 0.3694,0.463021 0.1957,7.725372 0.545,24.745261 0.6785,33.043462 l 0.1752,10.884602 -0.5979,0.19017 c -0.3288,0.10437 -2.3326,0.26607 -4.4529,0.35967 -3.4215,0.15106 -3.9023,0.11965 -4.2731,-0.27854 -0.3449,-0.37023 -0.6016,-0.40409 -1.4697,-0.19482 -0.5786,0.13947 -2.1102,0.26024 -3.4029,0.26924 -2.1112,0.0139 -2.5199,-0.0685 -4.0173,-0.80564 -3.4621,-1.70438 -5.3505,-5.02065 -5.6043,-9.842807 -0.1622,-3.078864 0.3853,-5.700189 1.5616,-7.476027 2.2679,-3.42383 6.9501,-6.403115 10.5699,-6.726206 l 1.9575,-0.174667 0.07,-8.000545 c 0.07,-7.953129 0.073,-8.002283 0.6614,-8.385535 0.829,-0.54034 7.3406,-3.325378 7.7748,-3.325378 z m -90.6426,13.229166 c 1.7199,0 3.1874,0.09748 3.2613,0.217043 0.1386,0.22415 1.7325,7.380722 2.2903,10.283092 0.3007,1.56432 0.2783,1.738008 -0.5105,3.918109 -1.0459,2.890253 -1.4637,6.427721 -1.2341,10.452585 0.2667,4.67467 0.6385,5.69527 3.0794,8.46099 1.1322,1.2829 1.9867,2.40423 1.8991,2.49183 -0.213,0.21305 -1.6812,0.14623 -5.4947,-0.25063 -1.7463,-0.18172 -3.3792,-0.34248 -3.6287,-0.35708 -0.6873,-0.0403 -0.8876,-0.62212 -1.6475,-4.78886 -1.0979,-6.02032 -1.2297,-6.61458 -1.4645,-6.61458 -0.1213,0 -0.5901,0.65484 -1.0418,1.45521 -0.4517,0.80036 -0.9373,1.45521 -1.0795,1.45521 -0.1422,0 -0.5581,-0.47624 -0.924,-1.05834 -2.1993,-3.499174 -2.0596,-3.328914 -2.2686,-2.770884 -0.1075,0.286994 -0.3799,2.354904 -0.6051,4.595584 -0.2253,2.24069 -0.519,4.18333 -0.6527,4.31705 -0.226,0.22604 -8.2075,0.98887 -10.434,0.99787 -0.9801,0.004 -0.9922,-0.009 -0.9922,-1.04386 0,-0.57621 0.3617,-4.89223 0.8036,-9.591148 0.4419,-4.69892 0.9733,-10.388621 1.1813,-12.644191 0.5184,-5.621319 0.657,-6.546731 1.0258,-6.852811 0.1755,-0.145659 2.4207,-0.410406 4.9888,-0.588076 5.3183,-0.367941 5.0159,-0.453306 6.363,1.798857 0.4767,0.79706 1.0124,1.390171 1.219,1.349269 0.2028,-0.04006 0.7415,-1.040136 1.1968,-2.222085 1.2079,-3.134881 1.0144,-3.010154 4.6695,-3.010154 z m 126.7918,4.033864 c 8.1139,-0.04693 24.0042,0.234762 24.0042,0.538985 0,0.342869 -2.1065,3.159083 -6.0792,8.127151 -6.2257,7.785592 -7.7289,9.807541 -7.5799,10.195761 0.1245,0.324918 1.1632,0.388188 6.4409,0.391188 3.4606,0.002 6.4569,0.10846 6.6585,0.23616 0.2965,0.18774 0.33,0.80767 0.1737,3.23753 -0.1063,1.6527 -0.3156,3.15381 -0.4651,3.33571 -0.2111,0.25682 -3.3388,0.33022 -13.9981,0.33022 -14.8009,0 -14.519,0.0294 -13.0292,-1.34256 0.3831,-0.35279 1.2027,-1.41521 1.8216,-2.36109 0.6189,-0.94589 1.6448,-2.39026 2.2799,-3.20911 5.387,-6.945228 7.9019,-10.295705 7.9019,-10.528554 0,-0.178641 -1.9187,-0.299733 -5.4901,-0.346231 l -5.4901,-0.07132 -0.076,-3.041157 -0.075,-3.041158 -0.97,-0.993738 c -0.717,-0.734208 -0.8927,-1.070494 -0.6733,-1.289844 0.1001,-0.100108 1.9405,-0.152305 4.6452,-0.167947 z m -16.9556,2.074807 c 1.2164,-0.0151 2.3671,0.05628 3.1988,0.228928 1.745,0.36227 5.1837,1.998115 5.4033,2.570385 0.2516,0.655661 -0.2656,1.38367 -4.5729,6.437849 -5.2771,6.192282 -5.8607,6.980251 -5.2622,7.102409 1.0393,0.212132 2.7731,-0.809739 4.453,-2.624127 0.9333,-1.00807 1.7813,-1.832448 1.8846,-1.832448 0.3676,0 4.8989,5.369682 4.8989,5.805332 0,0.0863 -0.2982,0.596 -0.663,1.13275 -1.2384,1.82244 -4.2036,3.45181 -8.0842,4.44262 -4.4701,1.14132 -9.021,0.87069 -11.9233,-0.709 -2.2545,-1.227 -2.216,-1.07141 -2.2159,-8.940023 0,-6.083112 0.054,-6.991469 0.4661,-7.744748 1.0338,-1.891369 3.9867,-4.07207 6.9603,-5.140772 1.2195,-0.438293 3.4292,-0.703977 5.4565,-0.729155 z m -55.8788,0.241848 c 1.3502,-0.0287 2.528,0.13721 3.3296,0.501261 1.2488,0.5672 4.1938,3.235976 5.2456,4.753716 l 0.7215,1.041278 -0.2812,3.002917 c -0.5381,5.744771 -0.2648,9.559528 0.8951,12.490188 1.0393,2.62609 1.0771,2.98008 0.3663,3.42719 -0.8788,0.55281 -8.113,0.90259 -8.2723,0.39997 -0.061,-0.19216 -0.1704,-2.13527 -0.2434,-4.31808 -0.177,-5.291009 -1.0617,-9.853568 -2.4433,-12.601298 -0.3384,-0.67306 -0.7964,-1.292894 -1.0175,-1.377693 -0.6628,-0.25436 -1.9323,1.065215 -2.5776,2.678906 -0.5637,1.409679 -0.6079,1.940028 -0.6646,7.958685 -0.033,3.54672 -0.1052,6.49299 -0.1591,6.54689 -0.3778,0.37778 -9.5793,1.38385 -9.8826,1.08055 -0.099,-0.099 -0.2784,-0.74708 -0.399,-1.4397 -0.2792,-1.60391 -0.805,-16.814721 -0.7017,-20.299022 l 0.078,-2.635496 0.926,-0.19327 c 0.5093,-0.106511 2.2421,-0.340299 3.851,-0.519348 2.8472,-0.316881 2.9459,-0.310266 3.7041,0.250113 l 0.7793,0.575675 2.3813,-0.658873 c 1.4919,-0.4128 3.0144,-0.635863 4.3645,-0.664559 z m -30.812,2.402438 c 1.4702,0.0015 2.9711,0.127563 4.0323,0.377753 2.5958,0.612 5.0849,2.051418 5.085,2.940389 -10e-5,0.185481 -1.2205,1.789541 -2.712,3.564641 -8.4511,10.057389 -8.0385,9.499679 -7.0291,9.499679 1.1175,0 2.8713,-1.12016 4.4473,-2.840138 1.8489,-2.017731 1.5451,-2.093058 4.2726,1.060918 1.4528,1.67997 1.5503,1.87746 1.5503,3.13934 0,1.21758 -0.095,1.43389 -0.9922,2.25826 -1.8028,1.65661 -5.8465,3.2755 -9.4118,3.76825 v 5.1e-4 c -4.7306,0.65381 -8.5507,-0.0727 -10.8086,-2.05517 -3.9197,-3.4415 -3.1785,-13.600651 1.3058,-17.897612 1.3913,-1.333129 4.2684,-2.879926 6.4131,-3.447335 0.9375,-0.248256 2.3771,-0.371004 3.8473,-0.369485 z m 57.8337,2.359543 c -0.5121,0 -2.2419,1.165156 -2.9998,2.021067 -0.2492,0.28129 -0.6455,0.972955 -0.8811,1.536857 -0.8191,1.960221 0.048,3.720245 2.3714,4.812625 0.7391,0.347501 1.6418,0.60054 2.0056,0.562239 0.6337,-0.06674 0.6645,-0.153519 0.7379,-2.082559 0.072,-1.90342 0.04,-2.037358 -0.5953,-2.453597 -0.5686,-0.372531 -0.6718,-0.640284 -0.6718,-1.739945 0,-0.71478 0.1159,-1.604894 0.2579,-1.978174 0.2185,-0.57487 0.1842,-0.678513 -0.2248,-0.678513 z m 26.0924,1.322917 c -3.2153,0 -5.557,3.146988 -4.7025,6.320028 0.1611,0.598471 0.4376,1.084521 0.6139,1.079521 0.2994,-0.008 4.7103,-5.184119 5.2699,-6.18412 0.4492,-0.80255 0.048,-1.215429 -1.1813,-1.215429 z m -86.0795,2.667539 c -0.7151,-0.04391 -1.5935,0.138415 -2.4081,0.532784 -1.9551,0.946449 -3.067,3.545454 -2.4681,5.769673 0.1925,0.71464 0.4323,1.087462 0.6656,1.034561 0.2006,-0.04549 1.5762,-1.563439 3.0567,-3.372919 2.4786,-3.029381 2.6542,-3.317531 2.2159,-3.638021 -0.2625,-0.19191 -0.6329,-0.299733 -1.062,-0.326078 z m 102.6687,2.359544 c 1.108,0 1.3101,0.262186 0.7829,1.014926 -0.4969,0.709379 -1.0594,0.733332 -1.4196,0.06046 -0.4535,-0.847449 -0.3183,-1.075388 0.6367,-1.075388 z" />
      <path
         style="fill:#fccb05;fill-opacity:1;stroke-width:0.264583"
         d="m 1111.7192,112.64173 c -1.7463,-0.18172 -3.3792,-0.34239 -3.6287,-0.35703 -0.6873,-0.0403 -0.8875,-0.6224 -1.6474,-4.78913 -1.098,-6.02033 -1.2295,-6.61458 -1.4643,-6.61458 -0.1213,0 -0.5901,0.65484 -1.0418,1.45521 -0.4517,0.80036 -0.9377,1.45521 -1.0799,1.45521 -0.1422,0 -0.5579,-0.47625 -0.9237,-1.05834 -2.1994,-3.49918 -2.0599,-3.3288 -2.2689,-2.77077 -0.1075,0.287 -0.3797,2.35511 -0.605,4.59579 -0.2252,2.24069 -0.5189,4.18339 -0.6527,4.31711 -0.226,0.22604 -8.2074,0.98932 -10.434,0.99783 -0.9801,0.004 -0.9922,-0.009 -0.9922,-1.04387 0,-0.57621 0.3616,-4.89222 0.8036,-9.59114 0.4419,-4.69892 0.9737,-10.38896 1.1817,-12.64453 0.5184,-5.62132 0.6569,-6.54672 1.0257,-6.8528 0.1755,-0.14566 2.4203,-0.41021 4.9884,-0.58788 5.3183,-0.36794 5.0159,-0.45341 6.363,1.79875 0.4767,0.79706 1.0126,1.39002 1.2192,1.34917 0.2028,-0.0401 0.7412,-1.03991 1.1966,-2.22186 1.2078,-3.13488 1.0147,-3.01038 4.6699,-3.01038 1.7198,0 3.1874,0.0978 3.2613,0.21739 0.1385,0.22415 1.7325,7.3806 2.2904,10.28297 0.3006,1.56432 0.278,1.73785 -0.5109,3.91795 -1.0458,2.89026 -1.4633,6.42765 -1.2337,10.45252 0.2667,4.67467 0.6382,5.69571 3.0791,8.46143 1.1322,1.2829 1.9869,2.40421 1.8993,2.49181 -0.213,0.21305 -1.6815,0.14603 -5.495,-0.25083 z m 12.5677,-3.1477 c -3.2164,-0.72621 -4.8265,-1.91674 -5.936,-4.38895 -2.0137,-4.48704 -0.5565,-12.09506 2.9625,-15.46699 1.3912,-1.33313 4.2684,-2.87965 6.4131,-3.44706 1.8752,-0.49614 5.7573,-0.49201 7.8797,0.008 2.5957,0.612 5.0849,2.05128 5.0849,2.94025 0,0.18548 -1.2204,1.7896 -2.712,3.5647 -6.3424,7.54794 -7.6068,9.09211 -7.6068,9.29027 0,0.38531 1.1445,0.21476 2.2945,-0.34191 0.6262,-0.30315 1.855,-1.33308 2.7307,-2.28872 1.8489,-2.01773 1.5449,-2.09322 4.2724,1.06077 1.4528,1.67997 1.5503,1.87744 1.5503,3.13932 0,1.21758 -0.095,1.43392 -0.9922,2.25828 -3.2303,2.96828 -11.0646,4.77273 -15.9411,3.67167 z m 3.9798,-13.35821 c 2.4787,-3.02938 2.6542,-3.31753 2.2159,-3.63802 -0.6999,-0.51176 -2.1666,-0.42447 -3.4701,0.20652 -1.2625,0.61115 -2.3011,2.09312 -2.5951,3.70277 -0.2206,1.2075 0.2925,3.21487 0.7927,3.10141 0.2006,-0.0455 1.5761,-1.5632 3.0566,-3.37268 z m 36.1238,12.89977 c -0.061,-0.19216 -0.1705,-2.13533 -0.2435,-4.31814 -0.177,-5.29101 -1.0616,-9.85311 -2.4432,-12.60084 -0.3384,-0.67306 -0.7962,-1.29317 -1.0173,-1.37801 -0.6628,-0.25436 -1.9327,1.0652 -2.5779,2.67889 -0.5637,1.40968 -0.608,1.9403 -0.6647,7.95896 -0.033,3.54672 -0.1049,6.49267 -0.1588,6.54656 -0.3777,0.37778 -9.5792,1.38393 -9.8825,1.08063 -0.099,-0.099 -0.2787,-0.74676 -0.3993,-1.43938 -0.2792,-1.60391 -0.8051,-16.81473 -0.7018,-20.29903 l 0.078,-2.63554 0.926,-0.19365 c 0.5094,-0.10651 2.2424,-0.34015 3.8513,-0.5192 2.8473,-0.31688 2.9459,-0.31022 3.7041,0.25016 l 0.779,0.57571 2.3813,-0.65882 c 2.984,-0.8256 6.0908,-0.89164 7.6939,-0.16354 1.2489,0.5672 4.1939,3.23612 5.2457,4.75386 l 0.7216,1.0413 -0.2813,3.00305 c -0.5381,5.74477 -0.2647,9.55961 0.8952,12.49028 1.0394,2.62609 1.0772,2.97975 0.3664,3.42686 -0.8788,0.55281 -8.113,0.90251 -8.2723,0.39989 z m 26.5798,-0.53347 c -0.3448,-0.37023 -0.6017,-0.40433 -1.4699,-0.19506 -0.5786,0.13947 -2.1098,0.26058 -3.4025,0.26912 -2.1113,0.0139 -2.5203,-0.068 -4.0177,-0.80521 -3.4621,-1.70438 -5.3504,-5.02094 -5.6043,-9.8431 -0.1621,-3.07887 0.3855,-5.69994 1.5617,-7.47578 2.2679,-3.42383 6.9499,-6.40348 10.5697,-6.72657 l 1.9577,-0.17474 0.07,-8.00008 c 0.07,-7.95313 0.073,-8.002345 0.6615,-8.385594 0.829,-0.540343 7.3405,-3.325778 7.7747,-3.325778 0.1965,0 0.3626,0.208359 0.3691,0.463021 0.1956,7.725371 0.5453,24.745461 0.6788,33.043661 l 0.1752,10.88481 -0.5979,0.18977 c -0.3289,0.10437 -2.3328,0.26636 -4.4531,0.35998 -3.4215,0.15106 -3.9022,0.11974 -4.273,-0.27845 z m -0.3287,-13.47083 c 0.072,-1.90342 0.04,-2.03725 -0.5953,-2.45349 -0.5685,-0.37253 -0.6719,-0.64019 -0.6719,-1.73985 0,-0.71478 0.1161,-1.605 0.258,-1.97828 0.2186,-0.57487 0.1842,-0.67868 -0.2249,-0.67868 -0.512,0 -2.2416,1.16556 -2.9996,2.02147 -1.3454,1.51921 -1.5205,3.59829 -0.4209,4.9963 0.6901,0.87729 3.0084,2.01108 3.9166,1.91543 0.6338,-0.0667 0.6646,-0.15386 0.738,-2.0829 z m 40.0078,12.11353 c 0,-0.19291 0.3134,-0.6394 0.6965,-0.99219 0.3831,-0.35279 1.2029,-1.41534 1.8218,-2.36122 0.6189,-0.94589 1.6449,-2.38976 2.28,-3.20861 5.387,-6.94523 7.9017,-10.29611 7.9017,-10.52896 0,-0.17864 -1.9186,-0.2996 -5.4901,-0.34613 l -5.4901,-0.0715 -0.075,-3.04104 -0.075,-3.04105 -0.9701,-0.99346 c -0.7169,-0.73421 -0.8926,-1.07091 -0.6733,-1.29026 0.4005,-0.40043 28.6494,-0.0343 28.6494,0.37138 0,0.34287 -2.1062,3.15865 -6.0789,8.12672 -6.2257,7.78559 -7.7291,9.80775 -7.5801,10.19597 0.1247,0.32491 1.1631,0.38802 6.4408,0.39142 3.4607,0.002 6.4572,0.10852 6.6588,0.23622 0.2964,0.18774 0.3296,0.80724 0.1734,3.2371 -0.1063,1.6527 -0.3156,3.15374 -0.4652,3.33565 -0.4119,0.50103 -27.7238,0.4813 -27.7238,-0.02 z m -20.0419,-0.2968 c -1.9951,-0.45544 -4.2089,-1.61377 -4.7961,-2.50949 -0.3688,-0.56245 -0.4297,-1.63271 -0.4297,-7.54657 0,-6.08311 0.055,-6.99124 0.4664,-7.74452 1.0338,-1.89137 3.9862,-4.07217 6.9599,-5.14087 1.9512,-0.70127 6.4377,-0.96049 8.6554,-0.50009 1.7451,0.36227 5.1837,1.99795 5.4033,2.57022 0.2516,0.65566 -0.2653,1.38344 -4.5726,6.43762 -5.2771,6.19228 -5.8611,6.9804 -5.2626,7.10256 1.0394,0.21213 2.7731,-0.80947 4.453,-2.62386 0.9333,-1.00807 1.7814,-1.83286 1.8848,-1.83286 0.3676,0 4.8988,5.37001 4.8988,5.80566 0,0.48802 -1.4935,2.22382 -2.5227,2.93193 -3.8118,2.62256 -10.8229,4.0353 -15.1379,3.05027 z m 3.4719,-12.81367 c 2.6745,-3.25883 2.912,-3.62264 2.7098,-4.14964 -0.2278,-0.59364 -2.2479,-0.47365 -3.6113,0.21451 -1.2942,0.65324 -2.2319,2.02405 -2.5098,3.66925 -0.1925,1.13951 0.2834,3.14751 0.7431,3.13516 0.1762,-0.005 1.377,-1.29591 2.6682,-2.86928 z m -62.4252,-27.841345 c -0.099,-0.160684 -2.1801,-4.929135 -4.624,-10.596554 -2.444,-5.667422 -4.6288,-10.587152 -4.8552,-10.932732 -0.4196,-0.640377 -1.9081,-0.985377 -4.4972,-1.042368 l -1.0289,-0.02265 -1.7817,3.836457 c -3.9893,8.589891 -6.1634,13.11361 -6.4457,13.411445 -0.3053,0.322121 -9.8251,0.987865 -10.2622,0.717669 -0.1223,-0.07558 -0.2224,-0.314796 -0.2224,-0.531586 0,-0.47766 21.3083,-42.956758 21.7891,-43.437521 0.2756,-0.275582 0.4149,-0.250844 0.745,0.132278 0.2234,0.259192 2.4016,5.29329 4.8405,11.186883 2.4389,5.893593 4.9649,11.94771 5.6133,13.453592 1.3026,3.025317 8.0076,19.20048 8.8789,21.419711 0.7342,1.87008 0.5414,2.018906 -3.1053,2.396744 -3.6443,0.377584 -4.8149,0.379587 -5.0442,0.0086 z M 1141.545,38.373182 c 0.1294,-0.366276 -1.1856,-5.909982 -1.4692,-6.193529 -0.098,-0.09819 -0.2488,-0.108204 -0.3348,-0.02225 -0.2449,0.244945 -2.2249,5.277738 -2.2249,5.655388 0,0.185891 0.4464,0.410838 0.9921,0.499883 0.5457,0.08904 1.1708,0.19969 1.3891,0.24588 0.918,0.194254 1.5383,0.124476 1.6477,-0.185365 z m 41.7296,26.824628 c -1.573,-1.013897 -2.494,-2.037818 -3.1331,-3.483189 -0.688,-1.55578 -0.9627,-4.299252 -0.6,-5.990522 0.4221,-1.968193 1.3592,-4.320188 1.7213,-4.320188 0.358,0 5.4915,3.141396 6.2391,3.817964 0.2672,0.241835 0.5616,0.91336 0.6541,1.492282 0.2061,1.288505 1.3397,2.095608 2.9455,2.097098 2.3696,0.0021 2.8842,-1.201039 2.8215,-6.59719 -0.024,-2.101029 -0.1447,-3.920452 -0.2675,-4.043164 -0.1227,-0.122708 -0.923,-0.04079 -1.7785,0.182034 -2.294,0.597498 -5.3298,0.527865 -7.1808,-0.164714 -1.7953,-0.671698 -3.9126,-2.644471 -4.7837,-4.457226 -1.5644,-3.255309 -1.8385,-8.363459 -0.6154,-11.468407 1.1779,-2.990374 5.3454,-6.620954 9.019,-7.856926 1.4678,-0.493848 2.1139,-0.559179 4.4097,-0.445858 l 2.69,0.132774 2.699,-1.293292 c 1.4844,-0.711311 2.8454,-1.293292 3.0243,-1.293292 0.4054,0 0.6678,4.103915 0.6695,10.469167 10e-4,3.575329 -0.095,4.815389 -0.4609,5.953124 -0.3802,1.182016 -0.4615,2.423269 -0.4585,6.993335 0,4.866415 0.076,5.836885 0.5885,7.816616 0.576,2.226544 0.5971,4.423456 0.051,5.307147 -0.1411,0.228273 -1.1437,0.406436 -2.943,0.522958 -2.6163,0.169431 -2.8754,0.243753 -6.276,1.799769 -3.7705,1.725324 -5.4605,2.9005 -6.5597,4.561528 -0.3735,0.564497 -0.8187,1.026357 -0.9891,1.026357 -0.1705,0 -0.8392,-0.341183 -1.4862,-0.758185 z m 10.91,-28.678748 c 0.3302,-0.519889 0.2524,-3.494651 -0.1006,-3.84765 -0.1747,-0.174625 -0.5291,-0.3175 -0.7877,-0.3175 -0.2586,0 -0.6638,-0.295625 -0.9006,-0.656945 -0.3711,-0.566441 -0.3861,-0.841788 -0.1085,-1.998658 0.177,-0.737941 0.2418,-1.42172 0.144,-1.519509 -0.3816,-0.381662 -3.0008,1.311619 -3.8432,2.484628 -2.4269,3.379427 -0.1711,6.756669 4.2116,6.305433 0.647,-0.06661 1.2702,-0.269018 1.385,-0.449799 z m -28.8831,24.882384 c -0.8532,-1.40308 -1.0381,-3.008521 -1.5933,-13.833993 -0.9077,-17.699343 -1.0777,-20.589664 -1.2251,-20.828207 -0.079,-0.127357 -0.667,-0.153001 -1.3072,-0.05699 -0.8785,0.131739 -1.1992,0.08313 -1.3072,-0.198118 -0.1982,-0.516634 0.6141,-4.24769 1.0068,-4.624187 0.5338,-0.511719 9.4157,-4.103271 9.9125,-4.008255 0.3859,0.07382 0.4917,0.503718 0.6394,2.598979 0.3743,5.307885 1.0491,15.751711 1.4273,22.08969 0.2171,3.638021 0.517,8.638645 0.6665,11.1125 0.1496,2.473854 0.2356,5.266932 0.1912,6.206841 l -0.081,1.708928 -0.9261,0.178216 c -0.5093,0.09802 -2.2659,0.253878 -3.9036,0.346353 l -2.9775,0.168133 z m 48.9283,-4.700217 c -4.1094,-0.721854 -6.889,-3.61008 -7.9214,-8.230957 -0.4886,-2.187112 -0.2307,-6.34411 0.5127,-8.262741 1.1286,-2.91305 5.1637,-6.499453 8.7285,-7.757951 5.0643,-1.787835 11.4806,0.353093 13.2274,4.413577 1.4784,3.436831 1.3288,7.980895 -0.3819,11.593099 -2.5555,5.396308 -9.0065,9.151147 -14.1653,8.244973 z m 7.3496,-11.904135 c 1.355,-0.826196 2.3543,-2.435376 2.7218,-4.38304 0.18,-0.953662 0.2507,-1.810449 0.1571,-1.903974 -0.093,-0.09352 -0.6735,0.314643 -1.2889,0.907037 -1.8382,1.769449 -2.7242,2.047211 -3.6325,1.138878 -0.7127,-0.712719 -0.7024,-2.43535 0.022,-3.606792 0.6457,-1.044708 0.3866,-1.128475 -1.2122,-0.392007 -1.4595,0.672285 -2.4482,1.667021 -3.0828,3.101803 -0.927,2.095548 -0.2129,3.780637 2.1159,4.993529 1.5106,0.786691 3.0595,0.840004 4.2,0.144566 z"
         id="path12017" />
      <path
         style="fill:#000000;stroke-width:0.264583"
         d="m 1112.1016,143.80964 c -0.2275,-3.11723 0.3894,-22.72581 0.7757,-24.65714 l 0.1821,-0.91079 1.5789,0.11704 c 0.8683,0.0644 2.7888,0.11703 4.2677,0.11703 h 2.6889 l 1.8494,-1.78593 1.8495,-1.78594 h 3.6813 c 5.176,0 8.3819,-0.66691 11.7831,-2.45119 l 1.5224,-0.79863 1.4649,1.38545 1.4649,1.38546 3.6273,-0.11326 c 1.995,-0.0623 5.4519,-0.33065 7.682,-0.59635 l 4.0548,-0.48308 0.6896,0.74371 0.6896,0.74371 5.4421,-0.19302 c 7.316,-0.25948 8.008,-0.37164 9.1555,-1.48377 l 0.9246,-0.89615 1.2529,0.48548 c 0.6891,0.26702 1.6696,0.6356 2.1789,0.81908 1.2523,0.45113 11.55,0.76587 17.0786,0.522 l 4.3676,-0.19266 1.2882,-1.15818 c 1.3457,-1.20991 1.8733,-1.35573 3.1114,-0.85993 1.0749,0.43045 8.4919,0.72283 11.5928,0.457 1.6489,-0.14136 3.6594,-0.53989 5.3359,-1.05768 l 2.6901,-0.83086 1.2038,1.02967 c 0.6621,0.56631 1.2078,1.1713 1.2125,1.34443 0.017,0.62642 -3.7004,12.0925 -3.9761,12.26283 -0.1555,0.0961 -3.2219,0.66804 -6.8141,1.27086 -3.5922,0.60282 -12.7821,2.15873 -20.4219,3.45757 -13.7644,2.34007 -47.4414,8.06042 -56.3563,9.57262 -30.677,5.20363 -29.0883,4.9559 -29.1186,4.54062 z m 6.8054,-60.30296 c -0.097,-0.097 -0.1764,-0.4598 -0.1764,-0.80619 0,-1.10449 3.0911,-10.02794 4.5055,-13.00639 l 1.364,-2.872372 1.7616,-0.166402 c 0.9689,-0.09152 2.3331,-0.167248 3.0316,-0.168283 3.0512,-0.0045 3.8032,-1.023802 8.6472,-11.720618 0.499,-1.102064 0.9257,-1.727586 1.1035,-1.617705 0.344,0.212575 0.9926,1.619449 4.6136,10.007725 2.2729,5.265412 2.9208,6.521075 3.8565,7.474475 l 1.1246,1.14591 3.1861,-0.003 c 1.7523,-0.002 4.9619,-0.17451 7.1325,-0.38384 l 3.9464,-0.38059 1.2791,-1.25987 c 0.7035,-0.69293 1.2791,-1.406147 1.2791,-1.584933 0,-0.178783 0.1163,-0.396919 0.2584,-0.484751 0.4432,-0.273936 8.591,-0.648306 8.8357,-0.405979 0.1301,0.128839 -0.3887,0.538467 -1.1906,0.939988 -2.9503,1.477285 -6.0058,3.753125 -9.108,6.783885 l -3.1889,3.11546 -6.3361,0.26846 c -3.4849,0.14765 -7.3888,0.43384 -8.6754,0.63598 -2.2509,0.35364 -2.3882,0.41572 -3.6348,1.64357 l -1.2955,1.27604 -1.7892,-0.63056 c -1.5875,-0.55948 -2.3609,-0.64273 -6.8618,-0.7385 -4.5076,-0.0959 -5.3181,-0.0459 -7.2758,0.44917 -1.2635,0.31951 -2.9798,1.00681 -4.0243,1.61153 -1.9019,1.10113 -2.0796,1.16699 -2.3686,0.87802 z m 88.1063,-53.710407 c -0.097,-0.09701 -0.1764,-2.707436 -0.1764,-5.800939 v -5.62455 l -1.1245,-1.08268 c -0.6185,-0.595474 -1.385,-1.151258 -1.7033,-1.235075 -0.3184,-0.08382 -1.8067,-0.11121 -3.3073,-0.06087 -2.625,0.08806 -2.8237,0.13803 -5.242,1.318244 -2.5689,1.253762 -4.1017,1.712134 -4.355,1.30234 -0.078,-0.12655 0.8211,-1.521635 1.9984,-3.100189 4.9973,-6.7000646 7.0313,-11.5531976 5.6617,-13.5085476 -0.6432,-0.918342 -2.8367,-1.22525605 -7.5384,-1.05479305 -4.4222,0.16032905 -5.9104,0.37171505 -15.2136,2.16104005 -3.3469,0.643739 -7.5737,1.42323 -9.3927,1.732208 -6.4236,1.091113 -10.8101,2.555957 -19.8707,6.6357366 -2.102,0.946462 -2.4807,1.039661 -3.2023,0.788101 -0.4502,-0.156916 -2.0869,-0.285303 -3.6372,-0.285303 -2.741,0 -2.8499,0.02286 -3.9433,0.826947 -0.8415,0.618813 -1.4148,1.404906 -2.2778,3.123229 -0.6343,1.262952 -1.3492,2.458898 -1.5887,2.657653 -0.2394,0.198757 -1.5299,0.983265 -2.8676,1.743355 -1.8377,1.044183 -2.5085,1.308036 -2.7445,1.07946 -0.1718,-0.166386 -0.6894,-1.255019 -1.1502,-2.419186 -0.7143,-1.804471 -7.1556,-19.33587865 -9.5267,-25.9291656 -0.4187,-1.164167 -1.4905,-3.9621354 -2.3819,-6.2177084 -0.8914,-2.255573 -1.6823,-4.357923 -1.7577,-4.671888 -0.1282,-0.534006 0.3299,-0.724728 7.099,-2.955332 27.239,-8.976026 43.3387,-13.086773 59.8882,-15.291292 4.1301,-0.550166 15.5815,-0.773948 19.9263,-0.389398 9.1974,0.814054 16.442,3.143213 22.5077,7.236291 4.9816,3.361534 9.8816,9.347115 12.1887,14.888934 3.1079,7.4655184 2.1631,17.5915634 -2.8259,30.286851 -1.1279,2.870052 -3.6869,8.191931 -4.7633,9.90605 l -0.4885,0.777923 -5.2809,-0.06689 c -6.1743,-0.07821 -7.4808,0.195998 -10.5309,2.210218 -1.8617,1.229373 -2.0765,1.321432 -2.3787,1.019226 z"
         id="path12021" />
    </g>
  </g>
</svg>
